# xmcd
#
# Track frame offsets:
#	150
#	4434
#	20829
#	37576
#	53576
#	75155
#	88820
#	103183
#	124536
#	142451
#	159700
#	176962
#	190209
#	215038
#	230362
#	242363
#	265491
#
# Disc length: 3806 seconds
#
# Revision: 0
# Processed by: cddbd v1.4PL0 Copyright (c) Steve Scherf et al.
# Submitted via: audiograbber 1.81.03
#
DISCID=eb0edc11
DTITLE=Amaradeva - Svarna vimaanaya
DYEAR=2000
DGENRE=Vocal
TTITLE0=Introduction
TTITLE1=Svarna vimaanaya
TTITLE2=Sandhun gasee
TTITLE3=Kumariyaka paa
TTITLE4=Svarnamaaliyee
TTITLE5=Sasara saagaree
TTITLE6=Kolomthota
TTITLE7=Piinamukoo kalu gangee
TTITLE8=Irahandha paayana lookee
TTITLE9=Siri budhdhagayaa vihaaree
TTITLE10=Mindhadha hii sara
TTITLE11=Adavanvuu dhenethin
TTITLE12=Sannaaliyanee
TTITLE13=Randhahadiya
TTITLE14=Vakkada langa
TTITLE15=Rathnadhviipa janmabuumi
TTITLE16=Tharu arundhathii
EXTD=
EXTT0=
EXTT1=
EXTT2=
EXTT3=
EXTT4=
EXTT5=
EXTT6=
EXTT7=
EXTT8=
EXTT9=
EXTT10=
EXTT11=
EXTT12=
EXTT13=
EXTT14=
EXTT15=
EXTT16=
PLAYORDER=
